<svg width="142" height="144" viewBox="0 0 142 144" fill="none" xmlns="http://www.w3.org/2000/svg">
<path d="M67.5018 10.5751C37.5018 47.0751 33.0018 94.5751 69.0018 132.575M67.5018 10.5751C110.502 46.0751 100.002 99.0751 69.0018 132.575M67.5018 10.5751C53.1079 11.2961 40.3076 16.904 30.5018 25.758M67.5018 10.5751C83.7782 9.75968 98.7862 15.6491 110.071 25.758M10.5018 71.0751L130.502 69.5751M10.5018 71.0751C10.6374 53.0264 18.2212 36.8465 30.5018 25.758M10.5018 71.0751C10.3649 89.302 18.0479 105.825 30.5018 117.146M69.0018 132.575C54.0866 132.195 40.6959 126.413 30.5018 117.146M69.0018 132.575C84.7239 132.975 99.1647 127.018 110.1 117.146M130.502 69.5751C129.936 52.1736 122.128 36.5578 110.071 25.758M130.502 69.5751C131.109 88.2202 123.07 105.437 110.1 117.146M30.5018 25.758C61.2522 44.8166 78.6252 44.8031 110.071 25.758M30.5018 117.146C61.9506 94.874 79.3439 97.0407 110.1 117.146" stroke="url(#paint0_linear_4_30)" stroke-width="21"/>
<path d="M67.5018 10.5751C37.5018 47.0751 33.0018 94.5751 69.0018 132.575M67.5018 10.5751C110.502 46.0751 100.002 99.0751 69.0018 132.575M67.5018 10.5751C53.1079 11.2961 40.3076 16.904 30.5018 25.758M67.5018 10.5751C83.7782 9.75968 98.7862 15.6491 110.071 25.758M10.5018 71.0751L130.502 69.5751M10.5018 71.0751C10.6374 53.0264 18.2212 36.8465 30.5018 25.758M10.5018 71.0751C10.3649 89.302 18.0479 105.825 30.5018 117.146M69.0018 132.575C54.0866 132.195 40.6959 126.413 30.5018 117.146M69.0018 132.575C84.7239 132.975 99.1647 127.018 110.1 117.146M130.502 69.5751C129.936 52.1736 122.128 36.5578 110.071 25.758M130.502 69.5751C131.109 88.2202 123.07 105.437 110.1 117.146M30.5018 25.758C61.2522 44.8166 78.6252 44.8031 110.071 25.758M30.5018 117.146C61.9506 94.874 79.3439 97.0407 110.1 117.146" stroke="black" stroke-width="7"/>
<defs>
<linearGradient id="paint0_linear_4_30" x1="70.5169" y1="10.5001" x2="70.5169" y2="132.594" gradientUnits="userSpaceOnUse">
<stop stop-color="#DEF5A5"/>
<stop offset="0.5" stop-color="#BF89B4"/>
<stop offset="0.75" stop-color="#E1AD79"/>
<stop offset="1" stop-color="#A09FE9"/>
</linearGradient>
</defs>
</svg>
